<svg width="100" height="115" viewBox="0 0 100 115" fill="none" xmlns="http://www.w3.org/2000/svg">
<mask id="mask0_3_24" style="mask-type:luminance" maskUnits="userSpaceOnUse" x="3" y="13" width="96" height="97">
<path d="M98.2916 13.9648H3.09015V109.166H98.2916V13.9648Z" fill="white"/>
</mask>
<g mask="url(#mask0_3_24)">
<path d="M42.7579 97.2707H58.6249C58.6249 99.3747 57.789 101.393 56.3012 102.88C54.8133 104.368 52.7955 105.204 50.6915 105.204C48.5873 105.204 46.5695 104.368 45.0816 102.88C43.5938 101.393 42.7579 99.3747 42.7579 97.2707ZM86.3919 89.3371V93.3038H14.9909V89.3371L22.9243 81.4037V57.6034C22.9243 45.3065 30.9768 34.4774 42.7579 30.9867C42.7579 30.59 42.7579 30.233 42.7579 29.8363C42.7579 27.7323 43.5938 25.7144 45.0816 24.2265C46.5695 22.7387 48.5873 21.9028 50.6915 21.9028C52.7955 21.9028 54.8133 22.7387 56.3012 24.2265C57.789 25.7144 58.6249 27.7323 58.6249 29.8363C58.6249 30.233 58.6249 30.59 58.6249 30.9867C70.406 34.4774 78.4585 45.3065 78.4585 57.6034V81.4037L86.3919 89.3371ZM70.525 57.6034C70.525 52.3431 68.4355 47.2984 64.7159 43.5788C60.9963 39.8594 55.9516 37.7698 50.6915 37.7698C45.4312 37.7698 40.3865 39.8594 36.6669 43.5788C32.9473 47.2984 30.8578 52.3431 30.8578 57.6034V85.3704H70.525V57.6034Z" fill="black"/>
</g>
</svg>
