<svg width="7" height="7" viewBox="0 0 7 7" fill="none" xmlns="http://www.w3.org/2000/svg">
<g clip-path="url(#clip0_201_16037)">
<path d="M5.26963 1.1569H4.99196V0.601562H4.43662V1.1569H2.21526V0.601562H1.65992V1.1569H1.38225C1.23496 1.1569 1.09371 1.21541 0.98956 1.31956C0.885413 1.42371 0.826904 1.56496 0.826904 1.71225V5.59963C0.826904 5.74692 0.885413 5.88817 0.98956 5.99232C1.09371 6.09647 1.23496 6.15498 1.38225 6.15498H5.26963C5.41692 6.15498 5.55817 6.09647 5.66232 5.99232C5.76647 5.88817 5.82498 5.74692 5.82498 5.59963V1.71225C5.82498 1.56496 5.76647 1.42371 5.66232 1.31956C5.55817 1.21541 5.41692 1.1569 5.26963 1.1569ZM5.26963 5.59963H1.38225V2.82293H5.26963V5.59963ZM1.38225 2.26759V1.71225H5.26963V2.26759H1.38225ZM2.27912 4.88047L2.57345 5.1748L3.25097 4.49728L3.92849 5.1748L4.22282 4.88047L3.5453 4.20295L4.22282 3.52543L3.92849 3.2311L3.25097 3.90862L2.57345 3.2311L2.27912 3.52543L2.95664 4.20295L2.27912 4.88047Z" fill="black"/>
</g>
<defs>
<clipPath id="clip0_201_16037">
<rect width="6.6641" height="6.6641" fill="white" transform="translate(-0.00610352 0.0458984)"/>
</clipPath>
</defs>
</svg>
