<svg width="7" height="8" viewBox="0 0 7 8" fill="none" xmlns="http://www.w3.org/2000/svg">
<g clip-path="url(#clip0_201_15391)">
<path d="M2.99305 6.80895H4.10374C4.10374 6.95623 4.04523 7.09748 3.94108 7.20163C3.83693 7.30578 3.69568 7.36429 3.5484 7.36429C3.40111 7.36429 3.25986 7.30578 3.15571 7.20163C3.05156 7.09748 2.99305 6.95623 2.99305 6.80895ZM6.04743 6.2536V6.53127H1.04936V6.2536L1.6047 5.69826V4.03224C1.6047 3.17146 2.16837 2.41342 2.99305 2.16907C2.99305 2.1413 2.99305 2.11631 2.99305 2.08854C2.99305 1.94126 3.05156 1.80001 3.15571 1.69586C3.25986 1.59171 3.40111 1.5332 3.5484 1.5332C3.69568 1.5332 3.83693 1.59171 3.94108 1.69586C4.04523 1.80001 4.10374 1.94126 4.10374 2.08854C4.10374 2.11631 4.10374 2.1413 4.10374 2.16907C4.92842 2.41342 5.49209 3.17146 5.49209 4.03224V5.69826L6.04743 6.2536ZM4.93675 4.03224C4.93675 3.66402 4.79048 3.31089 4.53011 3.05052C4.26974 2.79016 3.91661 2.64389 3.5484 2.64389C3.18018 2.64389 2.82705 2.79016 2.56668 3.05052C2.30631 3.31089 2.16004 3.66402 2.16004 4.03224V5.97593H4.93675V4.03224ZM5.70034 1.86363L5.30605 2.25792C5.78087 2.72719 6.04743 3.36583 6.04743 4.03224H6.60277C6.60277 3.21866 6.28067 2.43563 5.70034 1.86363ZM0.494019 4.03224H1.04936C1.04936 3.36583 1.31592 2.72719 1.79074 2.25792L1.39645 1.86363C0.816117 2.43563 0.494019 3.21866 0.494019 4.03224Z" fill="black"/>
</g>
<defs>
<clipPath id="clip0_201_15391">
<rect width="6.6641" height="6.6641" fill="white" transform="translate(0.216309 0.977539)"/>
</clipPath>
</defs>
</svg>
