<svg width="8" height="8" viewBox="0 0 8 8" fill="none" xmlns="http://www.w3.org/2000/svg">
<g clip-path="url(#clip0_201_15623)">
<path d="M5.50519 6.51337C5.65247 6.51337 5.79373 6.45486 5.89787 6.35072C6.00202 6.24657 6.06053 6.10532 6.06053 5.95803V1.5153C6.06053 1.20709 5.81062 0.959961 5.50519 0.959961H3.83916V2.90366L3.14499 2.48715L2.45081 2.90366V0.959961H2.17314C2.02585 0.959961 1.8846 1.01847 1.78045 1.12262C1.67631 1.22676 1.6178 1.36802 1.6178 1.5153V5.95803C1.6178 6.10532 1.67631 6.24657 1.78045 6.35072C1.8846 6.45486 2.02585 6.51337 2.17314 6.51337H5.50519Z" fill="black"/>
</g>
<defs>
<clipPath id="clip0_201_15623">
<rect width="6.6641" height="6.6641" fill="white" transform="translate(0.50708 0.405273)"/>
</clipPath>
</defs>
</svg>
