<svg width="8" height="7" viewBox="0 0 8 7" fill="none" xmlns="http://www.w3.org/2000/svg">
<g clip-path="url(#clip0_201_16013)">
<path d="M2.37362 3.37827H2.92896V3.93361H2.37362V3.37827ZM6.26101 1.71225V5.59963C6.26101 5.74692 6.2025 5.88817 6.09836 5.99232C5.99421 6.09647 5.85296 6.15498 5.70567 6.15498H1.81828C1.51007 6.15498 1.26294 5.90507 1.26294 5.59963V1.71225C1.26294 1.56496 1.32145 1.42371 1.4256 1.31956C1.52974 1.21541 1.671 1.1569 1.81828 1.1569H2.09595V0.601562H2.65129V1.1569H4.87266V0.601562H5.428V1.1569H5.70567C5.85296 1.1569 5.99421 1.21541 6.09836 1.31956C6.2025 1.42371 6.26101 1.56496 6.26101 1.71225ZM1.81828 2.26759H5.70567V1.71225H1.81828V2.26759ZM5.70567 5.59963V2.82293H1.81828V5.59963H5.70567ZM4.59499 3.93361V3.37827H5.15033V3.93361H4.59499ZM3.4843 3.93361V3.37827H4.03965V3.93361H3.4843ZM2.37362 4.48895H2.92896V5.04429H2.37362V4.48895ZM4.59499 5.04429V4.48895H5.15033V5.04429H4.59499ZM3.4843 5.04429V4.48895H4.03965V5.04429H3.4843Z" fill="black"/>
</g>
<defs>
<clipPath id="clip0_201_16013">
<rect width="6.6641" height="6.6641" fill="white" transform="translate(0.429932 0.0458984)"/>
</clipPath>
</defs>
</svg>
