<svg width="8" height="8" viewBox="0 0 8 8" fill="none" xmlns="http://www.w3.org/2000/svg">
<g clip-path="url(#clip0_201_20519)">
<path d="M4.24839 6.29006C3.02664 6.29006 2.02702 5.29045 2.02702 4.0687C2.02702 2.84695 3.02664 1.84733 4.24839 1.84733C5.47014 1.84733 6.46975 2.84695 6.46975 4.0687C6.46975 5.29045 5.47014 6.29006 4.24839 6.29006ZM4.24839 1.29199C2.7212 1.29199 1.47168 2.54151 1.47168 4.0687C1.47168 5.59589 2.7212 6.84541 4.24839 6.84541C5.77557 6.84541 7.02509 5.59589 7.02509 4.0687C7.02509 2.54151 5.77557 1.29199 4.24839 1.29199ZM3.97072 4.62404H4.52606V5.45705H5.35907V4.0687H5.91441L4.24839 2.68035L2.58236 4.0687H3.1377V5.45705H3.97072V4.62404Z" fill="black"/>
</g>
<defs>
<clipPath id="clip0_201_20519">
<rect width="6.6641" height="6.6641" fill="white" transform="translate(0.916382 0.736328)"/>
</clipPath>
</defs>
</svg>
